<?xml version="1.0" encoding="utf-8"?>
<!-- Generator: Adobe Illustrator 22.0.0, SVG Export Plug-In . SVG Version: 6.00 Build 0)  -->
<svg version="1.1" id="Ship_Base" xmlns="http://www.w3.org/2000/svg" xmlns:xlink="http://www.w3.org/1999/xlink" x="0px" y="0px"
	 viewBox="0 0 800 800" style="enable-background:new 0 0 800 800;" xml:space="preserve">
<style type="text/css">
	.st0{fill:url(#SVGID_1_);stroke:#383838;stroke-miterlimit:10;}
	.st1{fill:url(#SVGID_2_);stroke:#383838;stroke-miterlimit:10;}
	.st2{fill:url(#SVGID_3_);stroke:#383838;stroke-miterlimit:10;}
	.st3{fill:url(#SVGID_4_);stroke:#383838;stroke-miterlimit:10;}
	.st4{fill:url(#SVGID_5_);stroke:#383838;stroke-miterlimit:10;}
	.st5{fill:url(#SVGID_6_);stroke:#383838;stroke-miterlimit:10;}
	.st6{fill:url(#SVGID_7_);stroke:#383838;stroke-miterlimit:10;}
	.st7{fill:url(#SVGID_8_);stroke:#383838;stroke-miterlimit:10;}
	.st8{fill:url(#SVGID_9_);stroke:#383838;stroke-miterlimit:10;}
	.st9{fill:url(#SVGID_10_);stroke:#383838;stroke-miterlimit:10;}
	.st10{fill:url(#SVGID_11_);stroke:#383838;stroke-miterlimit:10;}
	.st11{fill:url(#SVGID_12_);stroke:#383838;stroke-miterlimit:10;}
	.st12{fill:url(#SVGID_13_);stroke:#383838;stroke-miterlimit:10;}
	.st13{fill:url(#SVGID_14_);stroke:#383838;stroke-miterlimit:10;}
</style>
<g id="Base_0">
	<linearGradient id="SVGID_1_" gradientUnits="userSpaceOnUse" x1="34.7287" y1="514.1381" x2="734.5068" y2="514.1381">
		<stop  offset="0" style="stop-color:#00479E"/>
		<stop  offset="1" style="stop-color:#2AAEFF"/>
	</linearGradient>
	<path class="st0" d="M734.5,706.8H196.7c-60.7-108.2-121-215.2-162-250.5c31.2-38.2,53.7-83,65.3-134.8
		c108.3,19,220.2,51.6,334.9,95.3l15,30c79,35.6,156.2,75.8,231.9,119.8c17.6,10.2,35.2,20.7,52.6,31.3V706.8z"/>
	<linearGradient id="SVGID_2_" gradientUnits="userSpaceOnUse" x1="100.0776" y1="514.1381" x2="196.7396" y2="514.1381">
		<stop  offset="0" style="stop-color:#00479E"/>
		<stop  offset="1" style="stop-color:#2AAEFF"/>
	</linearGradient>
	<path class="st1" d="M100.1,321.5c1.5,112.6,40.5,244.5,96.7,385.3"/>
</g>
<g id="Base_1">
	<linearGradient id="SVGID_3_" gradientUnits="userSpaceOnUse" x1="489.9065" y1="480.4865" x2="708.6392" y2="480.4865">
		<stop  offset="0" style="stop-color:#00479E"/>
		<stop  offset="1" style="stop-color:#2AAEFF"/>
	</linearGradient>
	<polygon class="st2" points="708.6,582.3 708.6,483.5 489.9,378.7 489.9,465.2 	"/>
	<linearGradient id="SVGID_4_" gradientUnits="userSpaceOnUse" x1="446.3405" y1="416.4958" x2="489.9065" y2="416.4958">
		<stop  offset="0" style="stop-color:#00479E"/>
		<stop  offset="1" style="stop-color:#2AAEFF"/>
	</linearGradient>
	<polygon class="st3" points="446.3,367.8 446.3,439.5 450,446.7 489.9,465.2 489.9,378.7 	"/>
	<linearGradient id="SVGID_5_" gradientUnits="userSpaceOnUse" x1="344.694" y1="403.6392" x2="446.3405" y2="403.6392">
		<stop  offset="0" style="stop-color:#00479E"/>
		<stop  offset="1" style="stop-color:#2AAEFF"/>
	</linearGradient>
	<polygon class="st4" points="344.7,384.6 446.3,367.8 446.3,439.5 435.8,418.5 	"/>
</g>
<g id="Antenna">
	<linearGradient id="SVGID_6_" gradientUnits="userSpaceOnUse" x1="535.5146" y1="248.4311" x2="553.7238" y2="248.4311">
		<stop  offset="0" style="stop-color:#00479E"/>
		<stop  offset="1" style="stop-color:#2AAEFF"/>
	</linearGradient>
	<rect x="535.5" y="198.8" class="st5" width="18.2" height="99.3"/>
	<linearGradient id="SVGID_7_" gradientUnits="userSpaceOnUse" x1="498.945" y1="207.3791" x2="583.6564" y2="207.3791">
		<stop  offset="0" style="stop-color:#00479E"/>
		<stop  offset="1" style="stop-color:#2AAEFF"/>
	</linearGradient>
	<path class="st6" d="M498.9,193.8c3.7,14.5,2.8,32,0,50.9c28.2-10.6,56.5-17.1,84.7-19.8c-2.7-17.9-2.8-36.2,0-54.9
		c-32.4,10.7-61.1,17.8-84.7,19.8V193.8z"/>
</g>
<g id="Base_2">
	<linearGradient id="SVGID_8_" gradientUnits="userSpaceOnUse" x1="350.1324" y1="343.5069" x2="543.0025" y2="343.5069">
		<stop  offset="0" style="stop-color:#00479E"/>
		<stop  offset="1" style="stop-color:#2AAEFF"/>
	</linearGradient>
	<path class="st7" d="M543,283.4c-69.1,4.5-134.2,18-192.9,45.8l0,54.4l192.9,20V283.4z"/>
	<linearGradient id="SVGID_9_" gradientUnits="userSpaceOnUse" x1="543.0025" y1="376.3727" x2="679.1461" y2="376.3727">
		<stop  offset="0" style="stop-color:#00479E"/>
		<stop  offset="1" style="stop-color:#2AAEFF"/>
	</linearGradient>
	<polygon class="st8" points="679.1,465.2 679.1,356.9 543,283.4 543,403.6 679.1,469.4 	"/>
</g>
<linearGradient id="SVGID_10_" gradientUnits="userSpaceOnUse" x1="-418.1713" y1="96.8579" x2="-418.1713" y2="96.8579">
	<stop  offset="0" style="stop-color:#00479E"/>
	<stop  offset="1" style="stop-color:#2AAEFF"/>
</linearGradient>
<path class="st9" d="M-418.2,96.9"/>
<g id="Canon_1">
	<linearGradient id="SVGID_11_" gradientUnits="userSpaceOnUse" x1="295.3877" y1="308.5718" x2="505.3591" y2="308.5718">
		<stop  offset="0" style="stop-color:#00479E"/>
		<stop  offset="1" style="stop-color:#2AAEFF"/>
	</linearGradient>
	<path class="st10" d="M302.7,258.4L504.3,338c2.6,9.8,0.7,17.2-7.3,20.7l-201.6-79.2L302.7,258.4z"/>
	<linearGradient id="SVGID_12_" gradientUnits="userSpaceOnUse" x1="293.4358" y1="268.9856" x2="304.6686" y2="268.9856">
		<stop  offset="0" style="stop-color:#00479E"/>
		<stop  offset="1" style="stop-color:#2AAEFF"/>
	</linearGradient>
	<path class="st11" d="M294.8,267.5c-2,5.8-1.8,11.2,0.6,12c2.4,0.8,5.9-3.3,7.9-9.1c2-5.8,1.8-11.2-0.6-12
		C300.4,257.6,296.8,261.7,294.8,267.5z"/>
</g>
<g id="Canon_2">
	<linearGradient id="SVGID_13_" gradientUnits="userSpaceOnUse" x1="208.2337" y1="321.497" x2="383.9734" y2="321.497">
		<stop  offset="0" style="stop-color:#00479E"/>
		<stop  offset="1" style="stop-color:#2AAEFF"/>
	</linearGradient>
	<path class="st12" d="M211.1,284l171.5,59.2c2.8,5,1.4,10.2-5.1,15.9l-169.3-54.3L211.1,284z"/>
	<linearGradient id="SVGID_14_" gradientUnits="userSpaceOnUse" x1="206.8019" y1="294.3242" x2="212.5108" y2="294.3242">
		<stop  offset="0" style="stop-color:#00479E"/>
		<stop  offset="1" style="stop-color:#2AAEFF"/>
	</linearGradient>
	<path class="st13" d="M212.1,294.6c-0.8,5.7-2.5,10.2-3.9,10.1c-1.4-0.2-1.8-4.9-1.1-10.7c0.8-5.7,2.5-10.2,3.9-10.1
		C212.4,284.1,212.9,288.9,212.1,294.6z"/>
</g>
</svg>
