<?xml version="1.0" encoding="utf-8"?>
<!-- Generator: Adobe Illustrator 22.0.0, SVG Export Plug-In . SVG Version: 6.00 Build 0)  -->
<svg version="1.1" id="Ship_Base" xmlns="http://www.w3.org/2000/svg" xmlns:xlink="http://www.w3.org/1999/xlink" x="0px" y="0px"
	 viewBox="0 0 800 800" style="enable-background:new 0 0 800 800;" xml:space="preserve">
<style type="text/css">
	.st0{fill:url(#SVGID_1_);stroke:#383838;stroke-miterlimit:10;}
	.st1{fill:url(#SVGID_2_);stroke:#383838;stroke-miterlimit:10;}
	.st2{fill:url(#SVGID_3_);stroke:#383838;stroke-miterlimit:10;}
	.st3{fill:url(#SVGID_4_);stroke:#383838;stroke-miterlimit:10;}
	.st4{fill:url(#SVGID_5_);stroke:#383838;stroke-miterlimit:10;}
	.st5{fill:url(#SVGID_6_);stroke:#383838;stroke-miterlimit:10;}
	.st6{fill:url(#SVGID_7_);stroke:#383838;stroke-miterlimit:10;}
	.st7{fill:url(#SVGID_8_);stroke:#383838;stroke-miterlimit:10;}
	.st8{fill:url(#SVGID_9_);stroke:#383838;stroke-miterlimit:10;}
	.st9{fill:url(#SVGID_10_);stroke:#383838;stroke-miterlimit:10;}
	.st10{fill:url(#SVGID_11_);stroke:#383838;stroke-miterlimit:10;}
	.st11{fill:url(#SVGID_12_);stroke:#383838;stroke-miterlimit:10;}
	.st12{fill:url(#SVGID_13_);stroke:#383838;stroke-miterlimit:10;}
	.st13{fill:url(#SVGID_14_);stroke:#383838;stroke-miterlimit:10;}
</style>
<g id="Base_0">
	<linearGradient id="SVGID_1_" gradientUnits="userSpaceOnUse" x1="164.6635" y1="487.5" x2="678.6635" y2="487.5">
		<stop  offset="0" style="stop-color:#00479E"/>
		<stop  offset="1" style="stop-color:#2AAEFF"/>
	</linearGradient>
	<path class="st0" d="M678.7,629h-395c-44.6-79.5-88.9-158.1-119-184c22.9-28.1,39.5-61,48-99c79.6,14,161.7,37.9,246,70l11,22
		c58.1,26.1,114.7,55.7,170.3,88c12.9,7.5,25.8,15.2,38.7,23V629z"/>
	<linearGradient id="SVGID_2_" gradientUnits="userSpaceOnUse" x1="212.6635" y1="487.5" x2="283.6635" y2="487.5">
		<stop  offset="0" style="stop-color:#00479E"/>
		<stop  offset="1" style="stop-color:#2AAEFF"/>
	</linearGradient>
	<path class="st1" d="M212.7,346c1.1,82.7,29.8,179.6,71,283"/>
</g>
<g id="Base_1">
	<linearGradient id="SVGID_3_" gradientUnits="userSpaceOnUse" x1="499" y1="462.7823" x2="659.6632" y2="462.7823">
		<stop  offset="0" style="stop-color:#00479E"/>
		<stop  offset="1" style="stop-color:#2AAEFF"/>
	</linearGradient>
	<polygon class="st2" points="659.7,537.6 659.7,465 499,388 499,451.6 	"/>
	<linearGradient id="SVGID_4_" gradientUnits="userSpaceOnUse" x1="467" y1="415.78" x2="499" y2="415.78">
		<stop  offset="0" style="stop-color:#00479E"/>
		<stop  offset="1" style="stop-color:#2AAEFF"/>
	</linearGradient>
	<polygon class="st3" points="467,380 467,432.7 469.7,438 499,451.6 499,388 	"/>
	<linearGradient id="SVGID_5_" gradientUnits="userSpaceOnUse" x1="392.3387" y1="406.3365" x2="467" y2="406.3365">
		<stop  offset="0" style="stop-color:#00479E"/>
		<stop  offset="1" style="stop-color:#2AAEFF"/>
	</linearGradient>
	<polygon class="st4" points="392.3,392.3 467,380 467,432.7 459.3,417.3 	"/>
</g>
<g id="Antenna">
	<linearGradient id="SVGID_6_" gradientUnits="userSpaceOnUse" x1="532.5" y1="292.3333" x2="545.875" y2="292.3333">
		<stop  offset="0" style="stop-color:#00479E"/>
		<stop  offset="1" style="stop-color:#2AAEFF"/>
	</linearGradient>
	<rect x="532.5" y="255.9" class="st5" width="13.4" height="73"/>
	<linearGradient id="SVGID_7_" gradientUnits="userSpaceOnUse" x1="505.639" y1="262.1798" x2="567.861" y2="262.1798">
		<stop  offset="0" style="stop-color:#00479E"/>
		<stop  offset="1" style="stop-color:#2AAEFF"/>
	</linearGradient>
	<path class="st6" d="M505.6,252.2c2.7,10.6,2.1,23.5,0,37.4c20.7-7.8,41.5-12.6,62.2-14.5c-2-13.2-2.1-26.6,0-40.3
		c-23.8,7.9-44.9,13.1-62.2,14.5V252.2z"/>
</g>
<g id="Base_2">
	<linearGradient id="SVGID_8_" gradientUnits="userSpaceOnUse" x1="396.3333" y1="362.1683" x2="538" y2="362.1683">
		<stop  offset="0" style="stop-color:#00479E"/>
		<stop  offset="1" style="stop-color:#2AAEFF"/>
	</linearGradient>
	<path class="st7" d="M538,318c-50.8,3.3-98.6,13.2-141.7,33.7v40L538,406.3V318z"/>
	<linearGradient id="SVGID_9_" gradientUnits="userSpaceOnUse" x1="538" y1="386.3088" x2="638" y2="386.3088">
		<stop  offset="0" style="stop-color:#00479E"/>
		<stop  offset="1" style="stop-color:#2AAEFF"/>
	</linearGradient>
	<polygon class="st8" points="638,451.6 638,372 538,318 538,406.3 638,454.6 	"/>
</g>
<linearGradient id="SVGID_10_" gradientUnits="userSpaceOnUse" x1="-168" y1="181" x2="-168" y2="181">
	<stop  offset="0" style="stop-color:#00479E"/>
	<stop  offset="1" style="stop-color:#2AAEFF"/>
</linearGradient>
<path class="st9" d="M-168,181"/>
<g id="Canon_1">
	<linearGradient id="SVGID_11_" gradientUnits="userSpaceOnUse" x1="356.1223" y1="336.5078" x2="510.3503" y2="336.5078">
		<stop  offset="0" style="stop-color:#00479E"/>
		<stop  offset="1" style="stop-color:#2AAEFF"/>
	</linearGradient>
	<path class="st10" d="M361.5,299.7l148,58.5c1.9,7.2,0.5,12.6-5.3,15.2l-148.1-58.2L361.5,299.7z"/>
	<linearGradient id="SVGID_12_" gradientUnits="userSpaceOnUse" x1="354.6886" y1="307.4309" x2="362.9394" y2="307.4309">
		<stop  offset="0" style="stop-color:#00479E"/>
		<stop  offset="1" style="stop-color:#2AAEFF"/>
	</linearGradient>
	<path class="st11" d="M355.7,306.3c-1.5,4.3-1.3,8.2,0.4,8.8c1.7,0.6,4.3-2.4,5.8-6.7c1.5-4.3,1.3-8.2-0.4-8.8
		C359.8,299.1,357.2,302.1,355.7,306.3z"/>
</g>
<g id="Canon_2">
	<linearGradient id="SVGID_13_" gradientUnits="userSpaceOnUse" x1="292.1061" y1="346.0016" x2="421.1902" y2="346.0016">
		<stop  offset="0" style="stop-color:#00479E"/>
		<stop  offset="1" style="stop-color:#2AAEFF"/>
	</linearGradient>
	<path class="st12" d="M294.2,318.4l126,43.5c2.1,3.6,1.1,7.5-3.7,11.7l-124.3-39.9L294.2,318.4z"/>
	<linearGradient id="SVGID_14_" gradientUnits="userSpaceOnUse" x1="291.0544" y1="326.0426" x2="295.2477" y2="326.0426">
		<stop  offset="0" style="stop-color:#00479E"/>
		<stop  offset="1" style="stop-color:#2AAEFF"/>
	</linearGradient>
	<path class="st13" d="M295,326.3c-0.6,4.2-1.9,7.5-2.9,7.4c-1-0.1-1.3-3.6-0.8-7.8s1.9-7.5,2.9-7.4
		C295.2,318.6,295.5,322.1,295,326.3z"/>
</g>
</svg>
